<?xml version="1.0" encoding="UTF-8" standalone="no"?><!DOCTYPE svg PUBLIC "-//W3C//DTD SVG 1.1//EN" "http://www.w3.org/Graphics/SVG/1.1/DTD/svg11.dtd"><svg width="100%" height="100%" viewBox="0 0 150 150" version="1.1" xmlns="http://www.w3.org/2000/svg" xmlns:xlink="http://www.w3.org/1999/xlink" xml:space="preserve" xmlns:serif="http://www.serif.com/" style="fill-rule:evenodd;clip-rule:evenodd;stroke-linejoin:round;stroke-miterlimit:2;"><path d="M150,75c0,41.394 -33.606,75 -75,75c-41.394,0 -75,-33.606 -75,-75c0,-41.394 33.606,-75 75,-75c41.394,0 75,33.606 75,75Z" style="fill:#fff;"/><path d="M103.788,38.636l0,19.318l13,7.682l-3.409,5.545l-16.409,-9.818l0,-22.727l6.818,0Zm-2.273,40.909c6.182,0 11.545,-2.273 15.909,-6.682c4.545,-4.409 6.818,-9.727 6.818,-16.045c0,-6.182 -2.273,-11.545 -6.818,-15.909c-4.364,-4.545 -9.727,-6.818 -15.909,-6.818c-6.318,0 -11.636,2.273 -16.045,6.818c-4.409,4.364 -6.682,9.727 -6.682,15.909c0,6.318 2.273,11.636 6.682,16.045c4.409,4.409 9.727,6.682 16.045,6.682m-11.364,27.273c2,0 3.636,-0.727 4.909,-2.091c1.273,-1.364 1.909,-2.955 1.909,-4.727c0,-1.909 -0.636,-3.5 -1.909,-4.864c-1.273,-1.364 -2.909,-1.955 -4.909,-1.955c-2,0 -3.636,0.591 -4.909,1.955c-1.273,1.364 -1.909,2.955 -1.909,4.864c0,1.773 0.636,3.364 1.909,4.727c1.273,1.364 2.909,2.091 4.909,2.091m-47.727,-27.273l36.864,0c-6.409,-6.182 -9.591,-13.636 -9.591,-22.727l-27.273,0l0,22.727Zm6.818,27.273c2,0 3.636,-0.727 4.909,-2.091c1.273,-1.364 1.909,-2.955 1.909,-4.727c0,-1.909 -0.636,-3.5 -1.909,-4.864c-1.273,-1.364 -2.909,-1.955 -4.909,-1.955c-2,0 -3.636,0.591 -4.909,1.955c-1.273,1.364 -1.909,2.955 -1.909,4.864c0,1.773 0.636,3.364 1.909,4.727c1.273,1.364 2.909,2.091 4.909,2.091m52.273,-81.818c8.727,0 16.273,3.045 22.5,9.318c6.273,6.227 9.318,13.773 9.318,22.5c0,8.045 -2.545,14.955 -7.818,20.864c-5.227,5.864 -11.727,9.409 -19.455,10.545l0,14.045c0,3.818 -1.5,7.182 -4.545,10l0,8.182c0,1.227 -0.5,2.273 -1.364,3.227c-0.909,0.909 -1.909,1.318 -3.182,1.318l-4.545,0c-1.227,0 -2.273,-0.409 -3.227,-1.318c-0.859,-0.852 -1.335,-2.018 -1.318,-3.227l0,-4.545l-36.364,0l0,4.545c0,1.227 -0.409,2.273 -1.318,3.227c-0.955,0.909 -2,1.318 -3.227,1.318l-4.545,0c-1.273,0 -2.273,-0.409 -3.182,-1.318c-0.864,-0.955 -1.364,-2 -1.364,-3.227l0,-8.182c-3.045,-2.818 -4.545,-6.182 -4.545,-10l0,-45.455c0,-7.182 3.045,-12.045 9.318,-14.545c6.227,-2.455 15.273,-3.636 27.045,-3.636l2.773,0c1.273,0 2.182,0.136 2.773,0.136c6.409,-9.227 15.136,-13.773 26.273,-13.773" style="fill-rule:nonzero;"/></svg>